<?xml version="1.0" standalone="yes"?>
<svg xmlns="http://www.w3.org/2000/svg" width="320" height="256" viewBox="0 0 320 256">
 <style type="text/css">
  <![CDATA[
  .eyes { fill: #999; stroke: none; }
  .helpline { fill: none; stroke-width: 1px; stroke: #999; }
  .radii { fill: none; stroke-width: 1px; stroke: #555; }
  .arrowhead { fill: #555; stroke: none; }
  .constructor { fill: none; stroke-width: 1px; stroke: #222; }
  .constructor-filled { fill: #222; stroke: none; }
  .result { fill: none; stroke-width: 3px; stroke: #222; }
  text { color: #222; font-size: 14px; }
  tspan { font-size: 60%; }
  ]]>
 </style>
 <g>
  <g>
   <line class="helpline" x1="20" y1="200" x2="140" y2="200" stroke-dasharray="5 2 1 2" />
   <line transform="rotate(20, 20, 200)" class="helpline" x1="20" y1="200" x2="20" y2="80" stroke-dasharray="5 2 1 2" />
   <g>
    <text x="8" y="220">A</text>
    <!--circle class="helpline" cx="20" cy="200" r="100" /-->
    <path class="helpline" d="M 45 103.2 A 100 100 180 0 1 119.7 207" />
    <g>
     <g transform="rotate(122, 20, 200)">
      <line class="radii" x1="20" y1="200" x2="-77" y2="200" />
      <polygon class="arrowhead" points="-80,200 -68,196 -68,204" />
     </g>
     <text x="60" y="150" dy="0, 2px">r<tspan>1</tspan></text>
    </g>
   </g>
   <g>
    <text x="42" y="98">B</text>
   </g>
   <g>
    <text x="122" y="220">C</text>
    <!--circle class="helpline" cx="120" cy="200" r="115" /-->
    <path class="helpline" d="M 45 112.8 A 115 115 180 0 1 139 86.6" />
    <g>
     <g transform="rotate(95, 120, 200)">
      <line class="radii" x1="120" y1="200" x2="7" y2="200" />
      <polygon class="arrowhead" points="5,200 17,196 17,204" />
     </g>
     <text x="132" y="122" dy="0, 2px">r<tspan>2</tspan></text>
    </g>
   </g>
  </g>
  <g>
   <line class="helpline" x1="180" y1="200" x2="300" y2="200" stroke-dasharray="5 2 1 2" />
   <line transform="rotate(20, 180, 200)" class="helpline" x1="180" y1="200" x2="180" y2="80" stroke-dasharray="5 2 1 2" />
   <g>
    <text x="168" y="220" dy="0, -4">A<tspan>I</tspan></text>
    <!--circle class="helpline" cx="180" cy="200" r="100" /-->
    <path class="helpline" d="M 205 103.2 A 100 100 180 0 1 279.7 207" />
    <g>
     <g transform="rotate(122, 180, 200)">
      <line class="radii" x1="180" y1="200" x2="83" y2="200" />
      <polygon class="arrowhead" points="80,200 92,196 92,204" />
     </g>
     <text x="220" y="150" dy="0, 2px">r<tspan>1</tspan></text>
    </g>
   </g>
   <g>
    <text x="202" y="98" dy="0, -4">B<tspan>I</tspan></text>
   </g>
   <g>
    <text x="282" y="220" dy="0, -4">C<tspan>I</tspan></text>
    <!--circle class="helpline" cx="280" cy="200" r="115" /-->
    <path class="helpline" d="M 205 112.8 A 115 115 180 0 1 299 86.6" />
    <g>
     <g transform="rotate(95, 280, 200)">
      <line class="radii" x1="280" y1="200" x2="167" y2="200" />
      <polygon class="arrowhead" points="165,200 177,196 177,204" />
     </g>
     <text x="292" y="122" dy="0, 2px">r<tspan>2</tspan></text>
    </g>
   </g>
  </g>
 </g>
 <g id="figure">
  <path class="result" d="M 59.15 92, 20 200, 134 200" />
  <path class="result" d="M 219.15 92, 180 200, 294 200" />
 </g>
</svg>
