<svg id="icon-collection" xmlns="http://www.w3.org/2000/svg">
 <symbol id="cross" viewBox="0 0 128 128">
  <polygon transform="rotate(45, 64, 64)" points="10 58, 58 58, 58 10, 70 10, 70 58, 118 58, 118 70, 70 70, 70 118, 58 118, 58 70, 10 70" fill="#222" stroke="#222" stroke-width="10px" stroke-linejoin="round" />
 </symbol>
 <symbol id="bin" viewBox="0 0 128 128">
  <line x1="19" y1="32" x2="109" y2="32" stroke="currentColor" stroke-width="10px" stroke-linecap="round" />
  <path d="M 24 36 v 70 A 10 10 180 0 0 34 116 h 60 A 10 10 180 0 0 104 106 v -70" fill="none" stroke="currentColor" stroke-width="10px" />
  <path d="M 46 28 v -6 A 10 10 180 0 1 56 12 h 18 A 10 10 180 0 1 82 22 v 6" fill="none" stroke="currentColor" stroke-width="10px" />
  <path d="M 42 50 v 48 m 22 0 v -48 m 22 0 v 48" stroke="currentColor" stroke-width="10px" stroke-linecap="round" />
 </symbol>
 <symbol id="send" viewBox="0 0 128 128">
  <path d="M 88,40 48,80 44,106 61,86 84.5,97 103.75,24 11.75,63.25 35,74 z" fill="currentColor" stroke="currentColor" stroke-width="3px" stroke-linecap="round" stroke-linejoin="round" transform="translate(-2, -10) scale(1.2, 1.2)" />
 </symbol>
</svg>
