<?xml version="1.0" standalone="yes"?>
<svg xmlns="http://www.w3.org/2000/svg" width="320" height="256" viewBox="0 0 320 256">
 <style type="text/css">
  <![CDATA[
  .eyes { fill: #999; stroke: none; }
  .helpline { fill: none; stroke-width: 1px; stroke: #999; }
  .radii { fill: none; stroke-width: 1px; stroke: #555; }
  .arrowhead { fill: #555; stroke: none; }
  .constructor { fill: none; stroke-width: 1px; stroke: #222; }
  .result { fill: none; stroke-width: 3px; stroke: #222; }
  text { color: #222; font-size: 14px; }
  tspan { font-size: 60%; }
  ]]>
 </style>
 <g>
  <g>
   <line class="helpline" x1="40" y1="128" x2="250" y2="128" stroke-dasharray="5 2 1 2" />
  </g>
  <g>
   <circle class="eyes" cx="60" cy="128" r="3" />
   <text x="40" y="122" dy="0, 2px">M<tspan>1</tspan></text>
   <circle class="constructor" cx="60" cy="128" r="50" />
   <text x="94" y="122">A</text>
   <g>
    <g transform="rotate(-42, 60, 128)">
     <line class="radii" x1="57" y1="128" x2="13" y2="128" />
     <polygon class="arrowhead" points="10,128 22,124 22,132" />
    </g>
    <text x="40" y="156" dy="0, 2px">r<tspan>1</tspan></text>
   </g>
  </g>
  <g>
   <circle class="eyes" cx="230" cy="128" r="3" />
   <text x="209" y="122" dy="0, 2px">M<tspan>2</tspan></text>
   <circle class="constructor" cx="230" cy="128" r="80" />
   <text x="156" y="122">B</text>
   <g>
    <g transform="rotate(-208, 230, 128)">
     <line class="radii" x1="227" y1="128" x2="153" y2="128" />
     <polygon class="arrowhead" points="150,128 162,124 162,132" />
    </g>
    <text x="272" y="96" dy="0, 2px">r<tspan>2</tspan></text>
   </g>
  </g>
 </g>
 <g>
  <g>
   <g>
    <path class="helpline" d="M 213 202 A 170 170 180 0 0 228 102" />
    <g>
     <g transform="rotate(-174, 60, 128)">
      <line class="radii" x1="57" y1="128" x2="-107" y2="128" />
      <polygon class="arrowhead" points="-110,128 -98,124 -98,132" />
     </g>
     <text x="204" y="140" dy="0, 2px">r<tspan>4</tspan></text>
    </g>
   </g>
   <g>
    <path class="helpline" d="M 203 158 A 40 40 180 0 0 240 167" />
    <g>
     <g transform="rotate(-100, 230, 128)">
      <line class="radii" x1="227" y1="128" x2="193" y2="128" />
      <polygon class="arrowhead" points="190,128 202,124 202,132" />
     </g>
     <text x="238" y="152" dy="0, 2px">r<tspan>5</tspan></text>
    </g>
   </g>
   <g>
    <circle class="eyes" cx="225" cy="168" r="3" />
    <text x="228" y="183" dy="0, 2px">M<tspan>3</tspan></text>
   </g>
   <g>
    <line class="helpline" x1="60" y1="128" x2="225" y2="168" stroke-dasharray="5 2 1 2" />
    <text x="110" y="159" dy="0, 0, 2px">BP<tspan>1</tspan></text>
   </g>
   <g>
    <line class="helpline" x1="225" y1="168" x2="100" y2="168" transform="rotate(97, 225, 168)" stroke-dasharray="5 2 1 2" />
    <text x="228" y="42" dy="0, 0, 2px">BP<tspan>2</tspan></text>
   </g>
  </g>
  <g>
   <path class="helpline" d="M 280 61 A 120 120 180 0 0 110 202" />
    <g>
     <g transform="rotate(-6, 225, 168)">
      <line class="radii" x1="223" y1="168" x2="108" y2="168" />
      <polygon class="arrowhead" points="105,168 117,164 117,172" />
     </g>
     <text x="126" y="192" dy="0, 2px">r<tspan>3</tspan></text>
    </g>
  </g>
 </g>
 <g id="figure">
  <path class="result" d="M 19 100 A 50 50 180 1 0 109 139 A 120 120 180 0 1 240 48 A 80 80 180 0 1 284 187" />
 </g>
</svg>
