<?xml version="1.0" standalone="yes"?>
<svg xmlns="http://www.w3.org/2000/svg" width="320" height="256" viewBox="0 0 320 256">
 <style type="text/css">
  <![CDATA[
  .eyes { fill: #999; stroke: none; }
  .helpline { fill: none; stroke-width: 1px; stroke: #999; }
  .radii { fill: none; stroke-width: 1px; stroke: #555; }
  .arrowhead { fill: #555; stroke: none; }
  .constructor { fill: none; stroke-width: 1px; stroke: #222; }
  .constructor-filled { fill: #222; stroke: none; }
  .result { fill: none; stroke-width: 3px; stroke: #222; }
  text { color: #222; font-size: 14px; }
  tspan { font-size: 60%; }
  ]]>
 </style>
 <g>
  <g id="basement">
   <line class="helpline" x1="20" y1="128" x2="300" y2="128" stroke-dasharray="5 2 1 2" />
   <line class="helpline" x1="160" y1="20" x2="160" y2="236" stroke-dasharray="5 2 1 2" />
   <g>
    <circle class="eyes" cx="160" cy="128" r="3" />
    <circle class="helpline" cx="160" cy="128" r="100" />
    <text x="164" y="124">M</text>
    <g>
     <g transform="rotate(58, 160, 128)">
      <line class="radii" x1="157" y1="128" x2="63" y2="128" />
      <polygon class="arrowhead" points="60,128 72,124 72,132" />
     </g>
     <text x="118" y="86">r</text>
    </g>
   </g>
  </g>
  <g>
   <line class="constructor" x1="160" y1="28" x2="260" y2="128" />
   <line class="constructor" x1="260" y1="128" x2="160" y2="228" />
   <line class="constructor" x1="160" y1="228" x2="60" y2="128" />
   <line class="constructor" x1="60" y1="128" x2="160" y2="28" />
   <text x="164" y="24">A</text>
   <text x="262" y="124">B</text>
   <text x="164" y="242">C</text>
   <text x="46" y="124">D</text>
  </g>
  <g>
   <g>
   </g>
  </g>
 </g>
 <g id="figure">
  <polygon class="result" points="160 28, 260 128, 160 228, 60 128" stroke-linejoin="round" />
 </g>
</svg>
