<?xml version="1.0" standalone="yes"?>
<svg xmlns="http://www.w3.org/2000/svg" width="320" height="256" viewBox="0 0 320 256">
 <style type="text/css">
  <![CDATA[
  .eyes { fill: #999; stroke: none; }
  .helpline { fill: none; stroke-width: 1px; stroke: #999; }
  .radii { fill: none; stroke-width: 1px; stroke: #555; }
  .arrowhead { fill: #555; stroke: none; }
  .constructor { fill: none; stroke-width: 1px; stroke: #222; }
  .constructor-filled { fill: #222; stroke: none; }
  .result { fill: none; stroke-width: 3px; stroke: #222; }
  text { color: #222; font-size: 14px; }
  tspan { font-size: 60%; }
  ]]>
 </style>
 <g>
  <g id="basement">
   <line class="helpline" x1="20" y1="128" x2="300" y2="128" stroke-dasharray="5 2 1 2" />
   <line class="helpline" x1="160" y1="20" x2="160" y2="236" stroke-dasharray="5 2 1 2" />
   <g>
    <circle class="eyes" cx="160" cy="128" r="3" />
    <circle class="helpline" cx="160" cy="128" r="100" />
    <text x="164" y="124">M</text>
    <g>
     <g transform="rotate(214, 160, 128)">
      <line class="radii" x1="157" y1="128" x2="63" y2="128" />
      <polygon class="arrowhead" points="60,128 72,124 72,132" />
     </g>
     <text x="214" y="160" dy="0, 2px">r<tspan>1</tspan></text>
    </g>
   </g>
  </g>
  <g>
   <circle class="eyes" cx="160" cy="228" r="3" />
   <text x="48" y="124">A</text>
   <!--circle class="helpline" cx="60" cy="128" r="100" /-->
   <path class="helpline" d="M 27 33.5 A 100 100 180 0 1 93 222.5" />
   <g>
    <line class="helpline" x1="110" y1="30" x2="110" y2="226" />
   </g>
    <g>
     <g transform="rotate(74, 60, 128)">
      <line class="radii" x1="60" y1="128" x2="-37" y2="128" />
      <polygon class="arrowhead" points="-40,128 -28,124 -28,132" />
     </g>
     <text x="30" y="68" dy="0, 2px">r<tspan>1</tspan></text>
    </g>
  </g>
  <g>
   <text x="98" y="124">B</text>
   <!--circle class="helpline" cx="110" cy="128" r="111.9" /-->
   <path class="helpline" d="M 146 22 A 111.9 111.9 180 0 1 221.6 136" />
    <g>
     <g transform="rotate(154, 110, 128)">
      <line class="radii" x1="110" y1="128" x2="1.1" y2="128" />
      <polygon class="arrowhead" points="-1.9,128 10.1,124 10.1,132" />
     </g>
     <text x="176" y="108" dy="0, 2px">r<tspan>2</tspan></text>
    </g>
  </g>
  <g>
   <text x="164" y="24">C</text>
   <text x="226" y="142">D</text>
   <line transform="rotate(58.2, 221.9, 128)" class="constructor" x1="221.9" y1="128" x2="103.9" y2="128" />
  </g>
  <g>
   <g>
    <!--circle class="helpline" cx="160" cy="28" r="118" /-->
    <path class="helpline" d="M 262 87.3 A 118 118 180 0 1 246 108.7" />
    <path class="helpline" d="M 74 108.7 A 118 118 180 0 1 58 87.3" />
   </g>
   <g>
    <!--circle class="helpline" cx="64.8" cy="97.65" r="118" /-->
    <path class="helpline" d="M 108 207.4 A 118 118 180 0 1 86 213.8" />
   </g>
   <g>
    <!--circle class="helpline" cx="255.2" cy="97.65" r="118" /-->
    <path class="helpline" d="M 234 213.8 A 118 118 180 0 1 212 207.4" />
   </g>
  </g>
  <g>
   <line class="constructor" x1="160" y1="28" x2="255.5" y2="97.75" />
   <line class="constructor" x1="255.5" y1="97.75" x2="217.7" y2="210" />
   <line class="constructor" x1="217.7" y1="210" x2="102.3" y2="210" />
   <line class="constructor" x1="102.3" y1="210" x2="64.5" y2="97.75" />
   <line class="constructor" x1="64.5" y1="97.75" x2="160" y2="28" />
  </g>
  <g>
   <g>
   </g>
  </g>
 </g>
 <g id="figure">
  <polygon class="result" points="160 28, 255.5 97.75, 217.7 210, 102.3 210, 64.5 97.75" stroke-linejoin="round" />
 </g>
</svg>
