<?xml version="1.0" standalone="yes"?>
<svg xmlns="http://www.w3.org/2000/svg" width="320" height="256" viewBox="0 0 320 256">
 <style type="text/css">
  <![CDATA[
  .eyes { fill: #999; stroke: none; }
  .helpline { fill: none; stroke-width: 1px; stroke: #999; }
  .radii { fill: none; stroke-width: 1px; stroke: #555; }
  .arrowhead { fill: #555; stroke: none; }
  .constructor { fill: none; stroke-width: 1px; stroke: #222; }
  .constructor-filled { fill: #222; stroke: none; }
  .result { fill: none; stroke-width: 3px; stroke: #222; }
  text { color: #222; font-size: 14px; }
  tspan { font-size: 60%; }
  ]]>
 </style>
 <g>
  <g id="basement">
   <line class="helpline" x1="20" y1="128" x2="300" y2="128" stroke-dasharray="5 2 1 2" />
   <line class="helpline" x1="160" y1="20" x2="160" y2="236" stroke-dasharray="5 2 1 2" />
   <g>
    <circle class="eyes" cx="160" cy="128" r="3" />
    <circle class="helpline" cx="160" cy="128" r="100" />
    <text x="164" y="124">M</text>
    <g>
     <g transform="rotate(58, 160, 128)">
      <line class="radii" x1="157" y1="128" x2="63" y2="128" />
      <polygon class="arrowhead" points="60,128 72,124 72,132" />
     </g>
     <text x="134" y="82">r</text>
    </g>
   </g>
  </g>
  <g>
   <circle class="eyes" cx="160" cy="28" r="3" />
   <text x="164" y="24">A</text>
   <!--circle class="helpline" cx="160" cy="28" r="100" /-->
   <path class="helpline" d="M 61 14 A 100 100 180 0 0 63 52" />
   <path class="helpline" d="M 257 52 A 100 100 180 0 0 259 14" />
    <g>
     <g transform="rotate(174, 160, 28)">
      <line class="radii" x1="157" y1="28" x2="63" y2="28" />
      <polygon class="arrowhead" points="60,28 72,24 72,32" />
     </g>
     <text x="222" y="16">r</text>
    </g>
  </g>
  <g>
   <circle class="eyes" cx="260" cy="128" r="3" />
   <text x="264" y="124">B</text>
   <!--circle class="helpline" cx="260" cy="128" r="100" /-->
   <path class="helpline" d="M 274 29 A 100 100 180 0 0 240 30" />
   <path class="helpline" d="M 240 226 A 100 100 180 0 0 274 227" />
    <g>
     <g transform="rotate(264, 260, 128)">
      <line class="radii" x1="257" y1="128" x2="163" y2="128" />
      <polygon class="arrowhead" points="160,128 172,124 172,132" />
     </g>
     <text x="274" y="190">r</text>
    </g>
  </g>
  <g>
   <circle class="eyes" cx="160" cy="228" r="3" />
   <text x="164" y="242">C</text>
   <!--circle class="helpline" cx="160" cy="228" r="100" /-->
   <path class="helpline" d="M 61.3 244 A 100 100 180 0 1 60.5 219" />
   <path class="helpline" d="M 259.6 219 A 100 100 180 0 1 258.7 244" />
    <g>
     <g transform="rotate(-6, 160, 228)">
      <line class="radii" x1="157" y1="228" x2="63" y2="228" />
      <polygon class="arrowhead" points="60,228 72,224 72,232" />
     </g>
     <text x="99" y="250">r</text>
    </g>
  </g>
  <g>
   <circle class="eyes" cx="60" cy="128" r="3" />
   <text x="48" y="124">D</text>
   <!--circle class="helpline" cx="60" cy="128" r="100" /-->
   <path class="helpline" d="M 46 29 A 100 100 180 0 1 72 28.7" />
   <path class="helpline" d="M 46 227 A 100 100 180 0 0 72 227.3" />
    <g>
     <g transform="rotate(84, 60, 128)">
      <line class="radii" x1="57" y1="128" x2="-37" y2="128" />
      <polygon class="arrowhead" points="-40,128 -28,124 -28,132" />
     </g>
     <text x="42" y="72">r</text>
    </g>
  </g>
  <g>
   <line transform="rotate(45, 160, 128)" class="helpline" x1="12" y1="128" x2="308" y2="128" />
   <line transform="rotate(-45, 160, 128)" class="helpline" x1="12" y1="128" x2="308" y2="128" />
  </g>
  <g>
   <line class="constructor" x1="230.5" y1="57.5" x2="230.5" y2="198.5" />
   <line class="constructor" x1="230.5" y1="198.5" x2="89.5" y2="198.5" />
   <line class="constructor" x1="89.5" y1="198.5" x2="89.5" y2="57.5" />
   <line class="constructor" x1="89.5" y1="57.5" x2="230.5" y2="57.5" />
  </g>
  <g>
   <g>
   </g>
  </g>
 </g>
 <g id="figure">
  <polygon class="result" points="230.5 57.5, 230.5 198.5, 89.5 198.5, 89.5 57.5" stroke-linejoin="round" />
 </g>
</svg>
