<?xml version="1.0" standalone="yes"?>
<svg xmlns="http://www.w3.org/2000/svg" width="320" height="256" viewBox="0 0 320 256">
 <style type="text/css">
  <![CDATA[
  .eyes { fill: #999; stroke: none; }
  .helpline { fill: none; stroke-width: 1px; stroke: #999; }
  .radii { fill: none; stroke-width: 1px; stroke: #555; }
  .arrowhead { fill: #555; stroke: none; }
  .constructor { fill: none; stroke-width: 1px; stroke: #222; }
  .constructor-filled { fill: #222; stroke: none; }
  .result { fill: none; stroke-width: 3px; stroke: #222; }
  text { color: #222; font-size: 14px; }
  tspan { font-size: 60%; }
  ]]>
 </style>
 <g>
  <g id="basement">
   <line class="helpline" x1="20" y1="128" x2="300" y2="128" stroke-dasharray="5 2 1 2" />
   <line class="helpline" x1="160" y1="20" x2="160" y2="236" stroke-dasharray="5 2 1 2" />
   <g>
    <circle class="eyes" cx="160" cy="128" r="3" />
    <circle class="helpline" cx="160" cy="128" r="100" />
    <text x="164" y="124">M</text>
    <g>
     <g transform="rotate(58, 160, 128)">
      <line class="radii" x1="157" y1="128" x2="63" y2="128" />
      <polygon class="arrowhead" points="60,128 72,124 72,132" />
     </g>
     <text x="114" y="80" dy="0, 2px">r<tspan>1</tspan></text>
    </g>
   </g>
  </g>
  <g>
   <circle class="eyes" cx="160" cy="228" r="3" />
   <text x="164" y="242">A</text>
   <!--circle class="helpline" cx="160" cy="228" r="100" /-->
   <path class="helpline" d="M 69 186.5 A 100 100 180 0 1 251 186.5" />
   <line class="helpline" x1="64" y1="178" x2="256" y2="178" />
   <g>
    <g transform="rotate(126, 160, 228)">
     <line class="radii" x1="157" y1="228" x2="63" y2="228" />
     <polygon class="arrowhead" points="60,228 72,224 72,232" />
    </g>
    <text x="186" y="174" dy="0, 2px">r<tspan>1</tspan></text>
   </g>
  </g>
  <g>
   <text x="60" y="192">B</text>
   <text x="164" y="192">C</text>
   <text x="96" y="174" dy="0, 0, 0, 0, 0, 0, 2px">BC ≙ r<tspan>2</tspan></text>
   <line class="constructor" x1="73.3" y1="178" x2="160" y2="178" />
  </g>
  <g>
   <!--circle class="helpline" cx="160" cy="28" r="86.7" /-->
   <path class="helpline" d="M 242.4 55 A 86.7 86.7 180 0 1 234.8 72" />
   <path class="helpline" d="M 85.2 72 A 86.7 86.7 180 0 1 77.5 55" />
   <!--line class="helpline" x1="54" y1="65.7" x2="266" y2="65.7" />
   <line class="helpline" x1="81.9" y1="45.7" x2="81.9" y2="85.7" />
   <line class="helpline" x1="238.1" y1="45.7" x2="238.1" y2="85.7" /-->
  </g>
  <g>
   <!--circle class="helpline" cx="81.9" cy="65.7" r="86.7" /-->
   <path class="helpline" d="M 48 145.6 A 86.7 86.7 180 0 0 76 152.2" />
  </g>
  <g>
   <!--circle class="helpline" cx="238.1" cy="65.7" r="86.7" /-->
   <path class="helpline" d="M 244 152.2 A 86.7 86.7 180 0 0 272 145.6" />
   <!--line class="helpline" x1="54" y1="150.3" x2="266" y2="150.3" />
   <line class="helpline" x1="62.4" y1="135.7" x2="62.4" y2="165.7" />
   <line class="helpline" x1="257.6" y1="135.7" x2="257.6" y2="165.7" /-->
  </g>
  <g>
   <!--circle class="helpline" cx="62.4" cy="150.3" r="86.7" /-->
   <path class="helpline" d="M 104 226.4 A 86.7 86.7 180 0 0 126 209.2" />
  </g>
  <g>
   <!--circle class="helpline" cx="257.6" cy="150.3" r="86.7" /-->
   <path class="helpline" d="M 194 209.2 A 86.7 86.7 180 0 0 216 226.4" />
   <!--line class="helpline" x1="54" y1="218.1" x2="266" y2="218.1" />
   <line class="helpline" x1="116.65" y1="198" x2="116.65" y2="238" />
   <line class="helpline" x1="203.35" y1="198" x2="203.35" y2="238" /-->
  </g>
  <g>
   <line class="constructor" x1="160" y1="28" x2="238.1" y2="65.7" />
   <line class="constructor" x1="238.1" y1="65.7" x2="257.6" y2="150.3" />
   <line class="constructor" x1="257.6" y1="150.3" x2="203.35" y2="218.1" />
   <line class="constructor" x1="203.35" y1="218.1" x2="116.65" y2="218.1" />
   <line class="constructor" x1="116.65" y1="218.1" x2="62.4" y2="150.3" />
   <line class="constructor" x1="62.4" y1="150.3" x2="81.9" y2="65.7" />
   <line class="constructor" x1="81.9" y1="65.7" x2="160" y2="28" />
  </g>
  <g>
   <g>
   </g>
  </g>
 </g>
 <g id="figure">
  <polygon class="result" points="160 28, 238.1 65.7, 257.6 150.3, 203.35 218.1, 116.65 218.1, 62.4 150.3, 81.9 65.7" stroke-linejoin="round" />
 </g>
</svg>
