<?xml version="1.0" standalone="yes"?>
<svg xmlns="http://www.w3.org/2000/svg" width="320" height="256" viewBox="0 0 320 256">
 <style type="text/css">
  <![CDATA[
  .eyes { fill: #999; stroke: none; }
  #triangle { fill: none; stroke-width: 1px; stroke: #222; }
  .result { fill: none; stroke-width: 3px; stroke: #222; }
  .bows { fill: none; stroke-width: 1px; stroke: #ddd; }
  .arc, line { fill: none; stroke-width: 1px; stroke: #999; }
  text { color: #222; font-size: 14px; }
  #circle-points-1 .circle-points { font-size: 12px; }
  #circle-points-1 .circle-points tspan { font-size: 9px; }
  ]]>
 </style>
 <g id="circle-points-1">
  <g id="angle-a">
   <text x="91" y="21">A</text>
   <path class="arc" d="M 60 78 A 64 64 180 0 0 153 54" />
   <circle class="eyes" cx="72" cy="84" r="3" />
   <text x="62" y="77" class="circle-points">A<tspan>I</tspan></text>
   <circle class="eyes" cx="142" cy="69" r="3" />
   <text x="140" y="62" class="circle-points">A<tspan>II</tspan></text>
  </g>
  <g id="angle-b">
   <text x="309" y="226">B</text>
   <path class="arc" d="M 268 167 A 64 64 180 0 0 242 231" />
   <circle class="eyes" cx="241" cy="220" r="3" />
   <text x="255" y="168" class="circle-points">B<tspan>I</tspan></text>
   <circle class="eyes" cx="257" cy="176" r="3" />
   <text x="228" y="236" class="circle-points">B<tspan>II</tspan></text>
  </g>
  <g id="angle-c">
   <text x="2" y="226">C</text>
   <path class="arc" d="M 26 157 A 64 64 180 0 1 79 231" />
   <circle class="eyes" cx="40" cy="161" r="3" />
   <text x="84" y="236" class="circle-points">C<tspan>I</tspan></text>
   <circle class="eyes" cx="80" cy="220" r="3" />
   <text x="30" y="153" class="circle-points">C<tspan>II</tspan></text>
  </g>
 </g>
 <g>
  <g>
   <!--circle class="bows" cx="72" cy="84" r="54" /-->
   <path class="arc" d="M 83 31 A 54 54 180 0 1 112 48" />
   <path class="arc" d="M 123 102 A 54 54 180 0 1 106 126" />
   <!--circle class="bows" cx="142" cy="69" r="54" /-->
   <path class="arc" d="M 92 49 A 54 54 180 0 1 112 24" />
   <path class="arc" d="M 131 122 A 54 54 180 0 1 105 108" />
  </g>
  <g>
   <!--circle class="bows" cx="257" cy="176" r="54" /-->
   <path class="arc" d="M 304 203 A 54 54 180 0 1 282 224" />
   <path class="arc" d="M 207 196 A 54 54 180 0 1 204 166" />
   <!--circle class="bows" cx="241" cy="220" r="54" /-->
   <path class="arc" d="M 195 192 A 54 54 180 0 1 216 172" />
   <path class="arc" d="M 292 202 A 54 54 180 0 1 294 230" />
  </g>
  <g>
   <!--circle class="bows" cx="80" cy="220" r="54" /-->
   <path class="arc" d="M 27 230 A 54 54 180 0 1 30 200" />
   <path class="arc" d="M 80 166 A 54 54 180 0 1 108 174" />
   <!--circle class="bows" cx="40" cy="161" r="54" /-->
   <path class="arc" d="M 93 151 A 54 54 180 0 1 90 181" />
   <path class="arc" d="M 40 215 A 54 54 180 0 1 13 208" />
  </g>
 </g>
 <g>
  <line x1="96" y1="26" x2="127" y2="167" />
  <line x1="304" y1="220" x2="103" y2="141" />
  <line x1="17" y1="220" x2="143" y2="135" />
 </g>
 <polygon id="triangle" points="16,220 304,220 96,26" />
 <circle class="eyes" cx="123" cy="149" r="3" />
   <text x="126" y="144">M</text>
 <circle class="result" cx="123" cy="149" r="71" />
</svg>
