<?xml version="1.0" standalone="yes"?>
<svg xmlns="http://www.w3.org/2000/svg" width="320" height="256" viewBox="0 0 320 256">
 <style type="text/css">
  <![CDATA[
  .eyes { fill: #999; stroke: none; }
  #triangle { fill: none; stroke-width: 1px; stroke: #222; }
  .result { fill: none; stroke-width: 3px; stroke: #222; }
  .arc, line { fill: none; stroke-width: 1px; stroke: #999; }
  text { color: #222; font-size: 14px; }
  ]]>
 </style>
 <g>
  <!--circle class="bows" cx="69" cy="124" r="108" /-->
   <path class="arc" d="M 72 16 A 108 108 180 0 1 117 27" />
   <path class="arc" d="M 175 146 A 108 108 180 0 1 159 184" />
  <!--circle class="bows" cx="195" cy="61" r="108" /-->
   <path class="arc" d="M 90 35 A 108 108 180 0 1 104 3" />
   <path class="arc" d="M 188 169 A 108 108 180 0 1 150 159" />
 </g>
 <g>
  <!--circle class="bows" cx="195" cy="61" r="82" /-->
   <path class="arc" d="M 277 65 A 82 82 180 0 1 268 98" />
   <path class="arc" d="M 191 143 A 82 82 180 0 1 156 133" />
  <!--circle class="bows" cx="255" cy="160" r="82" /-->
   <path class="arc" d="M 256 78 A 82 82 180 0 1 290 86" />
   <path class="arc" d="M 173 156 A 82 82 180 0 1 183 121" />
 </g>
 <g>
  <!--circle class="bows" cx="69" cy="124" r="128" /-->
   <path class="arc" d="M 169 44 A 128 128 180 0 1 187 74" />
   <path class="arc" d="M 159 215 A 128 128 180 0 1 131 236" />
  <!--circle class="bows" cx="254" cy="160" r="128" /-->
   <path class="arc" d="M 154 240 A 128 128 180 0 1 137 212" />
   <path class="arc" d="M 166 67 A 128 128 180 0 1 192 48" />
 </g>
 <g>
  <line x1="91" y1="10" x2="175" y2="178" />
  <line x1="291" y1="71" x2="142" y2="160" />
  <line x1="184" y1="29" x2="143" y2="238" />
 </g>
 <g id="triangle-group">
  <polygon id="triangle" points="69,124 255,160 195,61" />
   <text x="192" y="56">A</text>
   <text x="259" y="166">B</text>
   <text x="54" y="128">C</text>
 </g>
 <circle class="eyes" cx="160" cy="149" r="3" />
   <text x="142" y="154">M</text>
 <circle class="result" cx="160" cy="149" r="96" />
</svg>
