<?xml version="1.0" standalone="yes"?>
<svg xmlns="http://www.w3.org/2000/svg" width="320" height="256" viewBox="0 0 320 256">
 <style type="text/css">
  <![CDATA[
  .eyes { fill: #999; stroke: none; }
  .baselines { fill: none; stroke-width: 1px; stroke: #999; }
  .radii { fill: none; stroke-width: 1px; stroke: #555; }
  .arrowhead { fill: #555; stroke: none; }
  .spiral-line { fill: none; stroke-width: 3px; stroke: #222; }
  ]]>
 </style>
 <line class="baselines" x1="4" y1="128" x2="316" y2="128" />
 <line class="baselines" x1="4" y1="152" x2="316" y2="152" />
 <line class="baselines" x1="160" y1="4" x2="160" y2="252" />
 <line class="baselines" x1="184" y1="4" x2="184" y2="252" />
 <circle class="eyes" cx="160" cy="128" r="3" />
 <circle class="eyes" cx="184" cy="128" r="3" />
 <circle class="eyes" cx="160" cy="152" r="3" />
 <circle class="eyes" cx="184" cy="152" r="3" />
 <g id="arc-6">
  <path class="spiral-line" d="M 160 8 A 144 144 180 0 0 16 152" />
  <g transform="rotate(46, 160, 152)">
   <line class="radii" x1="158" y1="152" x2="16" y2="152" />
   <polygon class="arrowhead" points="16,152, 28,148 28,156" />
  </g>
 </g>
 <g id="arc-5">
  <path class="spiral-line" d="M 280 128 A 120 120 180 0 0 160 8" />
  <g transform="rotate(46, 160, 128)">
   <line class="radii" x1="160" y1="126" x2="160" y2="8" />
   <polygon class="arrowhead" points="160,8, 156,20 164,20" />
  </g>
 </g>
 <g id="arc-4">
  <path class="spiral-line" d="M 184 224 A 96 96 180 0 0 280 128" />
  <g transform="rotate(68, 184, 128)">
   <line class="radii" x1="186" y1="128" x2="280" y2="128" />
   <polygon class="arrowhead" points="280,128, 268,124 268,132" />
  </g>
 </g>
 <g id="arc-3">
  <path class="spiral-line" d="M 112 152 A 72 72 180 0 0 184 224" />
  <g transform="rotate(68, 184, 152)">
   <line class="radii" x1="184" y1="154" x2="184" y2="224" />
   <polygon class="arrowhead" points="184,224, 188,212 180,212" />
  </g>
 </g>
 <g id="arc-2">
  <path class="spiral-line" d="M 160 104 A 48 48 180 0 0 112 152" />
  <g transform="rotate(68, 160, 152)">
   <line class="radii" x1="158" y1="152" x2="112" y2="152" />
   <polygon class="arrowhead" points="112,152, 124,148 124,156" />
  </g>
 </g>
 <g id="arc-1">
  <path class="spiral-line" d="M 184 128 A 24 24 180 0 0 160 104" />
  <g transform="rotate(68, 160, 128)">
   <line class="radii" x1="160" y1="126" x2="160" y2="104" />
   <polygon class="arrowhead" points="160,104, 164,116 156,116" />
  </g>
 </g>
</svg>
