<?xml version="1.0" standalone="yes"?>
<svg xmlns="http://www.w3.org/2000/svg" width="320" height="256" viewBox="0 0 320 256">
 <style type="text/css">
  <![CDATA[
  .eyes { fill: #999; stroke: none; }
  .helpline { fill: none; stroke-width: 1px; stroke: #999; }
  .radii { fill: none; stroke-width: 1px; stroke: #555; }
  .arrowhead { fill: #555; stroke: none; }
  .constructor { fill: none; stroke-width: 1px; stroke: #222; }
  .result { fill: none; stroke-width: 3px; stroke: #222; }
  text { color: #222; font-size: 14px; }
  tspan { font-size: 68%; }
  ]]>
 </style>
 <g>
  <line transform="rotate(-8, 50, 220)" class="helpline" x1="50" y1="187.5" x2="50" y2="229" />
  <line transform="rotate(-8, 80, 220)" class="helpline" x1="80" y1="165" x2="80" y2="229" />
  <line transform="rotate(-8, 110, 220)" class="helpline" x1="110" y1="142.5" x2="110" y2="229" />
  <line transform="rotate(-8, 140, 220)" class="helpline" x1="140" y1="120" x2="140" y2="229" />
  <line transform="rotate(-8, 170, 220)" class="helpline" x1="170" y1="97.5" x2="170" y2="229" />
  <line transform="rotate(-8, 200, 220)" class="helpline" x1="200" y1="75" x2="200" y2="229" />
  <line transform="rotate(-8, 230, 220)" class="helpline" x1="230" y1="52.5" x2="230" y2="229" />
  <line transform="rotate(-8, 260, 220)" class="helpline" x1="260" y1="30" x2="260" y2="229" />
 </g>
 <g>
  <g transform="rotate(-40, 20, 220)">
   <line class="constructor" x1="20" y1="220" x2="340" y2="220" />
   <line class="constructor" x1="55" y1="214" x2="55" y2="226" />
   <line class="constructor" x1="90" y1="214" x2="90" y2="226" />
   <line class="constructor" x1="125" y1="214" x2="125" y2="226" />
   <line class="constructor" x1="160" y1="214" x2="160" y2="226" />
   <line class="constructor" x1="195" y1="214" x2="195" y2="226" />
   <line class="constructor" x1="230" y1="214" x2="230" y2="226" />
   <line class="constructor" x1="265" y1="214" x2="265" y2="226" />
   <line class="constructor" x1="300" y1="214" x2="300" y2="226" />
   <g>
    <text transform="rotate(40, 55, 207)" x="52" y="207">1</text>
    <text transform="rotate(40, 90, 207)" x="88" y="207">2</text>
    <text transform="rotate(40, 125, 207)" x="123" y="207">3</text>
    <text transform="rotate(40, 160, 207)" x="158" y="207">4</text>
    <text transform="rotate(40, 195, 207)" x="193" y="207">5</text>
    <text transform="rotate(40, 230, 207)" x="228" y="207">6</text>
    <text transform="rotate(40, 265, 207)" x="263" y="207">7</text>
    <text transform="rotate(40, 300, 207)" x="298" y="207">8</text>
   </g>
  </g>
 </g>
 <g>
  <line class="helpline" x1="20" y1="220" x2="300" y2="220" />
 </g>
 <g id="figure">
 <g>
  <line class="result" x1="20" y1="220" x2="260" y2="220" />
  <line class="result" x1="20" y1="214" x2="20" y2="226" />
  <line class="result" x1="50" y1="214" x2="50" y2="226" />
  <line class="result" x1="80" y1="214" x2="80" y2="226" />
  <line class="result" x1="110" y1="214" x2="110" y2="226" />
  <line class="result" x1="140" y1="214" x2="140" y2="226" />
  <line class="result" x1="170" y1="214" x2="170" y2="226" />
  <line class="result" x1="200" y1="214" x2="200" y2="226" />
  <line class="result" x1="230" y1="214" x2="230" y2="226" />
  <line class="result" x1="260" y1="214" x2="260" y2="226" />
  <g>
   <text x="14" y="240">A</text>
   <text x="44" y="240">1<tspan>I</tspan></text>
   <text x="74" y="240">2<tspan>I</tspan></text>
   <text x="104" y="240">3<tspan>I</tspan></text>
   <text x="134" y="240">4<tspan>I</tspan></text>
   <text x="164" y="240">5<tspan>I</tspan></text>
   <text x="194" y="240">6<tspan>I</tspan></text>
   <text x="224" y="240">7<tspan>I</tspan></text>
   <text x="254" y="240">8<tspan>I</tspan></text>
  </g>
 </g>
 </g>
</svg>
